<svg xmlns="http://www.w3.org/2000/svg" xmlns:xlink="http://www.w3.org/1999/xlink" width="200" zoomAndPan="magnify" viewBox="0 0 150 149.999998" height="200" preserveAspectRatio="xMidYMid meet" version="1.0"><defs><filter x="0%" y="0%" width="100%" height="100%" id="573ef935fa"><feColorMatrix values="0 0 0 0 1 0 0 0 0 1 0 0 0 0 1 0 0 0 1 0" color-interpolation-filters="sRGB"/></filter><g/><clipPath id="aa9d13993f"><path d="M 0 0 L 149.902344 0 L 149.902344 149.902344 L 0 149.902344 Z M 0 0 " clip-rule="nonzero"/></clipPath><clipPath id="d22c17aaa2"><path d="M 149.699219 74.75 C 149.699219 95.332031 142.386719 113.003906 127.761719 127.761719 C 113.136719 142.386719 95.53125 149.695312 74.953125 149.695312 C 54.234375 149.695312 36.5625 142.382812 21.9375 127.761719 C 7.3125 113 0 95.332031 0 74.746094 C 0 54.03125 7.3125 36.425781 21.9375 21.9375 C 36.5625 7.3125 54.234375 0 74.953125 0 C 95.53125 0 113.136719 7.3125 127.761719 21.9375 C 142.386719 36.425781 149.699219 54.03125 149.699219 74.746094 Z M 149.699219 74.75 " clip-rule="evenodd"/></clipPath><radialGradient gradientTransform="matrix(0.690718, 0.723124, 0.723124, -0.690718, -1.099441, -0.306913)" gradientUnits="userSpaceOnUse" r="125.418292" cx="53.582978" id="a720210b64" cy="-0.223432" fx="53.582978" fy="-0.223432"><stop stop-opacity="1" stop-color="rgb(76.899719%, 7.099915%, 18.798828%)" offset="0"/><stop stop-opacity="1" stop-color="rgb(76.899719%, 7.099915%, 18.798828%)" offset="0.25"/><stop stop-opacity="1" stop-color="rgb(76.852417%, 7.086182%, 18.765259%)" offset="0.296875"/><stop stop-opacity="1" stop-color="rgb(76.652527%, 7.032776%, 18.626404%)" offset="0.316406"/><stop stop-opacity="1" stop-color="rgb(76.348877%, 6.951904%, 18.411255%)" offset="0.324219"/><stop stop-opacity="1" stop-color="rgb(76.045227%, 6.871033%, 18.197632%)" offset="0.332031"/><stop stop-opacity="1" stop-color="rgb(75.740051%, 6.790161%, 17.984009%)" offset="0.339844"/><stop stop-opacity="1" stop-color="rgb(75.436401%, 6.70929%, 17.76886%)" offset="0.347656"/><stop stop-opacity="1" stop-color="rgb(75.132751%, 6.628418%, 17.555237%)" offset="0.355469"/><stop stop-opacity="1" stop-color="rgb(74.829102%, 6.547546%, 17.341614%)" offset="0.363281"/><stop stop-opacity="1" stop-color="rgb(74.523926%, 6.466675%, 17.127991%)" offset="0.371094"/><stop stop-opacity="1" stop-color="rgb(74.220276%, 6.385803%, 16.912842%)" offset="0.378906"/><stop stop-opacity="1" stop-color="rgb(73.916626%, 6.304932%, 16.699219%)" offset="0.386719"/><stop stop-opacity="1" stop-color="rgb(73.612976%, 6.22406%, 16.485596%)" offset="0.394531"/><stop stop-opacity="1" stop-color="rgb(73.3078%, 6.143188%, 16.270447%)" offset="0.402344"/><stop stop-opacity="1" stop-color="rgb(73.00415%, 6.062317%, 16.056824%)" offset="0.410156"/><stop stop-opacity="1" stop-color="rgb(72.7005%, 5.981445%, 15.843201%)" offset="0.417969"/><stop stop-opacity="1" stop-color="rgb(72.395325%, 5.900574%, 15.628052%)" offset="0.425781"/><stop stop-opacity="1" stop-color="rgb(72.091675%, 5.819702%, 15.414429%)" offset="0.433594"/><stop stop-opacity="1" stop-color="rgb(71.788025%, 5.738831%, 15.200806%)" offset="0.441406"/><stop stop-opacity="1" stop-color="rgb(71.484375%, 5.657959%, 14.985657%)" offset="0.449219"/><stop stop-opacity="1" stop-color="rgb(71.179199%, 5.577087%, 14.772034%)" offset="0.457031"/><stop stop-opacity="1" stop-color="rgb(70.875549%, 5.496216%, 14.558411%)" offset="0.464844"/><stop stop-opacity="1" stop-color="rgb(70.571899%, 5.415344%, 14.343262%)" offset="0.472656"/><stop stop-opacity="1" stop-color="rgb(70.266724%, 5.334473%, 14.129639%)" offset="0.480469"/><stop stop-opacity="1" stop-color="rgb(69.963074%, 5.253601%, 13.916016%)" offset="0.488281"/><stop stop-opacity="1" stop-color="rgb(69.659424%, 5.172729%, 13.700867%)" offset="0.496094"/><stop stop-opacity="1" stop-color="rgb(69.432068%, 5.11322%, 13.540649%)" offset="0.503906"/><stop stop-opacity="1" stop-color="rgb(69.27948%, 5.072021%, 13.433838%)" offset="0.507812"/><stop stop-opacity="1" stop-color="rgb(69.126892%, 5.032349%, 13.327026%)" offset="0.511719"/><stop stop-opacity="1" stop-color="rgb(68.97583%, 4.99115%, 13.220215%)" offset="0.515625"/><stop stop-opacity="1" stop-color="rgb(68.823242%, 4.951477%, 13.113403%)" offset="0.519531"/><stop stop-opacity="1" stop-color="rgb(68.670654%, 4.910278%, 13.006592%)" offset="0.523438"/><stop stop-opacity="1" stop-color="rgb(68.519592%, 4.870605%, 12.898254%)" offset="0.527344"/><stop stop-opacity="1" stop-color="rgb(68.367004%, 4.829407%, 12.791443%)" offset="0.53125"/><stop stop-opacity="1" stop-color="rgb(68.215942%, 4.789734%, 12.684631%)" offset="0.535156"/><stop stop-opacity="1" stop-color="rgb(68.063354%, 4.748535%, 12.57782%)" offset="0.539062"/><stop stop-opacity="1" stop-color="rgb(67.910767%, 4.708862%, 12.471008%)" offset="0.542969"/><stop stop-opacity="1" stop-color="rgb(67.759705%, 4.667664%, 12.364197%)" offset="0.546875"/><stop stop-opacity="1" stop-color="rgb(67.607117%, 4.627991%, 12.255859%)" offset="0.550781"/><stop stop-opacity="1" stop-color="rgb(67.454529%, 4.588318%, 12.149048%)" offset="0.554688"/><stop stop-opacity="1" stop-color="rgb(67.303467%, 4.547119%, 12.042236%)" offset="0.558594"/><stop stop-opacity="1" stop-color="rgb(67.150879%, 4.507446%, 11.935425%)" offset="0.5625"/><stop stop-opacity="1" stop-color="rgb(66.998291%, 4.466248%, 11.828613%)" offset="0.566406"/><stop stop-opacity="1" stop-color="rgb(66.847229%, 4.426575%, 11.721802%)" offset="0.570312"/><stop stop-opacity="1" stop-color="rgb(66.694641%, 4.385376%, 11.61499%)" offset="0.574219"/><stop stop-opacity="1" stop-color="rgb(66.543579%, 4.345703%, 11.506653%)" offset="0.578125"/><stop stop-opacity="1" stop-color="rgb(66.390991%, 4.304504%, 11.399841%)" offset="0.582031"/><stop stop-opacity="1" stop-color="rgb(66.238403%, 4.264832%, 11.29303%)" offset="0.585938"/><stop stop-opacity="1" stop-color="rgb(66.087341%, 4.223633%, 11.186218%)" offset="0.589844"/><stop stop-opacity="1" stop-color="rgb(65.934753%, 4.18396%, 11.079407%)" offset="0.59375"/><stop stop-opacity="1" stop-color="rgb(65.782166%, 4.142761%, 10.972595%)" offset="0.597656"/><stop stop-opacity="1" stop-color="rgb(65.631104%, 4.103088%, 10.864258%)" offset="0.601562"/><stop stop-opacity="1" stop-color="rgb(65.478516%, 4.06189%, 10.757446%)" offset="0.605469"/><stop stop-opacity="1" stop-color="rgb(65.325928%, 4.022217%, 10.650635%)" offset="0.609375"/><stop stop-opacity="1" stop-color="rgb(65.174866%, 3.981018%, 10.543823%)" offset="0.613281"/><stop stop-opacity="1" stop-color="rgb(65.022278%, 3.941345%, 10.437012%)" offset="0.617188"/><stop stop-opacity="1" stop-color="rgb(64.871216%, 3.900146%, 10.3302%)" offset="0.621094"/><stop stop-opacity="1" stop-color="rgb(64.718628%, 3.860474%, 10.221863%)" offset="0.625"/><stop stop-opacity="1" stop-color="rgb(64.489746%, 3.799438%, 10.061646%)" offset="0.628906"/><stop stop-opacity="1" stop-color="rgb(64.186096%, 3.718567%, 9.848022%)" offset="0.636719"/><stop stop-opacity="1" stop-color="rgb(63.882446%, 3.637695%, 9.634399%)" offset="0.644531"/><stop stop-opacity="1" stop-color="rgb(63.577271%, 3.556824%, 9.41925%)" offset="0.652344"/><stop stop-opacity="1" stop-color="rgb(63.273621%, 3.475952%, 9.205627%)" offset="0.660156"/><stop stop-opacity="1" stop-color="rgb(62.969971%, 3.395081%, 8.992004%)" offset="0.667969"/><stop stop-opacity="1" stop-color="rgb(62.666321%, 3.314209%, 8.776855%)" offset="0.675781"/><stop stop-opacity="1" stop-color="rgb(62.361145%, 3.233337%, 8.563232%)" offset="0.683594"/><stop stop-opacity="1" stop-color="rgb(62.057495%, 3.152466%, 8.349609%)" offset="0.691406"/><stop stop-opacity="1" stop-color="rgb(61.753845%, 3.071594%, 8.13446%)" offset="0.699219"/><stop stop-opacity="1" stop-color="rgb(61.448669%, 2.990723%, 7.920837%)" offset="0.707031"/><stop stop-opacity="1" stop-color="rgb(61.14502%, 2.909851%, 7.707214%)" offset="0.714844"/><stop stop-opacity="1" stop-color="rgb(60.84137%, 2.828979%, 7.492065%)" offset="0.722656"/><stop stop-opacity="1" stop-color="rgb(60.53772%, 2.748108%, 7.278442%)" offset="0.730469"/><stop stop-opacity="1" stop-color="rgb(60.232544%, 2.667236%, 7.064819%)" offset="0.738281"/><stop stop-opacity="1" stop-color="rgb(59.928894%, 2.586365%, 6.84967%)" offset="0.746094"/><stop stop-opacity="1" stop-color="rgb(59.701538%, 2.52533%, 6.689453%)" offset="0.753906"/><stop stop-opacity="1" stop-color="rgb(59.54895%, 2.485657%, 6.582642%)" offset="0.757812"/><stop stop-opacity="1" stop-color="rgb(59.397888%, 2.444458%, 6.47583%)" offset="0.761719"/><stop stop-opacity="1" stop-color="rgb(59.2453%, 2.404785%, 6.369019%)" offset="0.765625"/><stop stop-opacity="1" stop-color="rgb(59.092712%, 2.363586%, 6.262207%)" offset="0.769531"/><stop stop-opacity="1" stop-color="rgb(58.94165%, 2.323914%, 6.15387%)" offset="0.773438"/><stop stop-opacity="1" stop-color="rgb(58.789062%, 2.282715%, 6.047058%)" offset="0.777344"/><stop stop-opacity="1" stop-color="rgb(58.636475%, 2.243042%, 5.940247%)" offset="0.78125"/><stop stop-opacity="1" stop-color="rgb(58.485413%, 2.201843%, 5.833435%)" offset="0.785156"/><stop stop-opacity="1" stop-color="rgb(58.332825%, 2.16217%, 5.726624%)" offset="0.789062"/><stop stop-opacity="1" stop-color="rgb(58.180237%, 2.120972%, 5.619812%)" offset="0.792969"/><stop stop-opacity="1" stop-color="rgb(58.029175%, 2.081299%, 5.513%)" offset="0.796875"/><stop stop-opacity="1" stop-color="rgb(57.876587%, 2.0401%, 5.404663%)" offset="0.800781"/><stop stop-opacity="1" stop-color="rgb(57.723999%, 2.000427%, 5.297852%)" offset="0.804688"/><stop stop-opacity="1" stop-color="rgb(57.572937%, 1.959229%, 5.19104%)" offset="0.808594"/><stop stop-opacity="1" stop-color="rgb(57.420349%, 1.919556%, 5.084229%)" offset="0.8125"/><stop stop-opacity="1" stop-color="rgb(57.192993%, 1.858521%, 4.924011%)" offset="0.816406"/><stop stop-opacity="1" stop-color="rgb(56.887817%, 1.777649%, 4.708862%)" offset="0.824219"/><stop stop-opacity="1" stop-color="rgb(56.584167%, 1.696777%, 4.495239%)" offset="0.832031"/><stop stop-opacity="1" stop-color="rgb(56.280518%, 1.615906%, 4.281616%)" offset="0.839844"/><stop stop-opacity="1" stop-color="rgb(55.975342%, 1.535034%, 4.066467%)" offset="0.847656"/><stop stop-opacity="1" stop-color="rgb(55.671692%, 1.454163%, 3.852844%)" offset="0.855469"/><stop stop-opacity="1" stop-color="rgb(55.368042%, 1.373291%, 3.639221%)" offset="0.863281"/><stop stop-opacity="1" stop-color="rgb(55.064392%, 1.292419%, 3.424072%)" offset="0.871094"/><stop stop-opacity="1" stop-color="rgb(54.83551%, 1.231384%, 3.263855%)" offset="0.878906"/><stop stop-opacity="1" stop-color="rgb(54.684448%, 1.191711%, 3.157043%)" offset="0.882812"/><stop stop-opacity="1" stop-color="rgb(54.53186%, 1.150513%, 3.050232%)" offset="0.886719"/><stop stop-opacity="1" stop-color="rgb(54.379272%, 1.11084%, 2.94342%)" offset="0.890625"/><stop stop-opacity="1" stop-color="rgb(54.22821%, 1.069641%, 2.836609%)" offset="0.894531"/><stop stop-opacity="1" stop-color="rgb(54.075623%, 1.029968%, 2.728271%)" offset="0.898438"/><stop stop-opacity="1" stop-color="rgb(53.924561%, 0.98877%, 2.62146%)" offset="0.902344"/><stop stop-opacity="1" stop-color="rgb(53.771973%, 0.949097%, 2.514648%)" offset="0.90625"/><stop stop-opacity="1" stop-color="rgb(53.543091%, 0.888062%, 2.354431%)" offset="0.910156"/><stop stop-opacity="1" stop-color="rgb(53.239441%, 0.80719%, 2.139282%)" offset="0.917969"/><stop stop-opacity="1" stop-color="rgb(52.935791%, 0.726318%, 1.925659%)" offset="0.925781"/><stop stop-opacity="1" stop-color="rgb(52.630615%, 0.645447%, 1.712036%)" offset="0.933594"/><stop stop-opacity="1" stop-color="rgb(52.403259%, 0.584412%, 1.551819%)" offset="0.941406"/><stop stop-opacity="1" stop-color="rgb(52.252197%, 0.544739%, 1.445007%)" offset="0.945312"/><stop stop-opacity="1" stop-color="rgb(52.099609%, 0.50354%, 1.33667%)" offset="0.949219"/><stop stop-opacity="1" stop-color="rgb(51.947021%, 0.463867%, 1.229858%)" offset="0.953125"/><stop stop-opacity="1" stop-color="rgb(51.719666%, 0.402832%, 1.069641%)" offset="0.957031"/><stop stop-opacity="1" stop-color="rgb(51.41449%, 0.32196%, 0.856018%)" offset="0.964844"/><stop stop-opacity="1" stop-color="rgb(51.187134%, 0.260925%, 0.694275%)" offset="0.972656"/><stop stop-opacity="1" stop-color="rgb(51.034546%, 0.221252%, 0.587463%)" offset="0.976562"/><stop stop-opacity="1" stop-color="rgb(50.80719%, 0.160217%, 0.427246%)" offset="0.980469"/><stop stop-opacity="1" stop-color="rgb(50.578308%, 0.0991821%, 0.267029%)" offset="0.988281"/><stop stop-opacity="1" stop-color="rgb(50.350952%, 0.0396729%, 0.106812%)" offset="0.992188"/><stop stop-opacity="1" stop-color="rgb(50.19989%, 0%, 0%)" offset="1"/></radialGradient><clipPath id="1b7c10d183"><path d="M 8 24 L 149.902344 24 L 149.902344 149.902344 L 8 149.902344 Z M 8 24 " clip-rule="nonzero"/></clipPath><mask id="3c4b9550ee"><g filter="url(#573ef935fa)"><rect x="-15" width="180" fill="#000000" y="-15" height="179.999997" fill-opacity="0.219"/></g></mask><clipPath id="b4a208530c"><path d="M 0.53125 0.984375 L 141.699219 0.984375 L 141.699219 125.699219 L 0.53125 125.699219 Z M 0.53125 0.984375 " clip-rule="nonzero"/></clipPath><clipPath id="bcf4d50701"><rect x="0" width="142" y="0" height="126"/></clipPath></defs><g clip-path="url(#aa9d13993f)"><g clip-path="url(#d22c17aaa2)"><path fill="url(#a720210b64)" d="M -74.769531 71.417969 L 78.277344 -74.769531 L 224.46875 78.277344 L 71.421875 224.464844 Z M -74.769531 71.417969 " fill-rule="nonzero"/></g></g><path fill="#c41230" d="M 35.953125 26.8125 C 45.835938 27.21875 47.125 32.023438 39.8125 41.234375 C 31.820312 51.117188 26.335938 54.4375 23.359375 51.1875 C 20.648438 48.34375 20.851562 43.601562 23.96875 36.96875 C 27.21875 30.0625 31.210938 26.679688 35.953125 26.8125 Z M 35.953125 26.8125 " fill-opacity="1" fill-rule="evenodd"/><path fill="#c41230" d="M 19.5 58.5 C 22.070312 59.039062 22.882812 61.003906 21.9375 64.390625 C 20.992188 67.773438 19.570312 68.789062 17.671875 67.4375 C 16.046875 66.351562 15.503906 64.523438 16.046875 61.953125 C 16.726562 59.378906 17.875 58.226562 19.5 58.5 Z M 19.5 58.5 " fill-opacity="1" fill-rule="evenodd"/><g clip-path="url(#1b7c10d183)"><g mask="url(#3c4b9550ee)"><g transform="matrix(1, 0, 0, 1, 8, 24)"><g clip-path="url(#bcf4d50701)"><g clip-path="url(#b4a208530c)"><path fill="#800000" d="M 122.808594 0.984375 C 135.402344 15.066406 141.699219 31.65625 141.699219 50.75 C 141.699219 71.332031 134.386719 89.003906 119.761719 103.761719 C 105.136719 118.386719 87.53125 125.699219 66.953125 125.699219 C 52.734375 125.699219 39.597656 121.972656 27.546875 114.527344 C 15.898438 107.214844 6.898438 97.464844 0.53125 85.277344 C 7.4375 93.132812 15.695312 99.292969 25.3125 103.761719 C 35.195312 108.363281 45.625 110.667969 56.59375 110.667969 C 77.308594 110.667969 94.980469 103.355469 109.605469 88.730469 C 124.09375 74.105469 131.339844 56.5 131.339844 35.921875 C 131.339844 23.328125 128.496094 11.679688 122.808594 0.984375 Z M 122.808594 0.984375 " fill-opacity="1" fill-rule="evenodd"/></g></g></g></g></g><g fill="#000000" fill-opacity="0.502"><g transform="translate(14.76703, 88.691326)"><g><path d="M 13.484375 -21.96875 L 18.015625 -22.234375 L 12.0625 -0.6875 L 7.15625 -0.40625 L -1.21875 -21.125 L 3.3125 -21.390625 L 8.015625 -9.03125 C 8.273438 -8.3125 8.550781 -7.460938 8.84375 -6.484375 C 9.132812 -5.515625 9.320312 -4.835938 9.40625 -4.453125 C 9.457031 -5.335938 9.726562 -6.90625 10.21875 -9.15625 Z M 13.484375 -21.96875 "/></g></g></g><g fill="#000000" fill-opacity="0.502"><g transform="translate(33.755696, 87.588747)"><g><path d="M 15.59375 -0.5625 L 13.875 -5.53125 L 6.1875 -5.265625 L 4.828125 -0.171875 L 0 0 L 6.703125 -21.5 L 12.171875 -21.703125 L 20.4375 -0.734375 Z M 12.6875 -9.265625 C 11.113281 -13.765625 10.222656 -16.3125 10.015625 -16.90625 C 9.816406 -17.5 9.675781 -17.96875 9.59375 -18.3125 C 9.3125 -17.0625 8.507812 -13.976562 7.1875 -9.0625 Z M 12.6875 -9.265625 "/></g></g></g><g fill="#000000" fill-opacity="0.502"><g transform="translate(53.966191, 86.880608)"><g><path d="M 2.65625 -0.046875 L 2.328125 -21.203125 L 6.828125 -21.265625 L 7.09375 -3.8125 L 15.671875 -3.953125 L 15.734375 -0.25 Z M 2.65625 -0.046875 "/></g></g></g><g fill="#000000" fill-opacity="0.502"><g transform="translate(70.435139, 86.553047)"><g><path d="M 11.625 0.109375 L 6.671875 -16.53125 L 6.53125 -16.53125 C 6.695312 -13.15625 6.773438 -10.90625 6.765625 -9.78125 L 6.671875 0.0625 L 2.65625 0.03125 L 2.84375 -21.125 L 8.953125 -21.078125 L 13.828125 -4.859375 L 13.90625 -4.859375 L 19.359375 -20.984375 L 25.46875 -20.9375 L 25.28125 0.21875 L 21.109375 0.1875 L 21.203125 -9.828125 C 21.203125 -10.296875 21.207031 -10.835938 21.21875 -11.453125 C 21.238281 -12.078125 21.316406 -13.722656 21.453125 -16.390625 L 21.328125 -16.390625 L 15.734375 0.140625 Z M 11.625 0.109375 "/></g></g></g><g fill="#000000" fill-opacity="0.502"><g transform="translate(98.085459, 86.843733)"><g><path d="M 15.59375 0.546875 L 14.234375 -4.53125 L 6.546875 -4.8125 L 4.828125 0.171875 L 0 0 L 8.21875 -20.96875 L 13.6875 -20.78125 L 20.4375 0.71875 Z M 13.3125 -8.34375 C 12.0625 -12.9375 11.351562 -15.535156 11.1875 -16.140625 C 11.03125 -16.753906 10.925781 -17.238281 10.875 -17.59375 C 10.5 -16.363281 9.476562 -13.34375 7.8125 -8.53125 Z M 13.3125 -8.34375 "/></g></g></g><g fill="#000000" fill-opacity="0.502"><g transform="translate(118.277249, 87.557472)"><g><path d="M 19.734375 1.125 L 14.609375 0.84375 L 10.15625 -7.421875 L 4.796875 0.28125 L 0 0 L 7.625 -10.484375 L 1.65625 -21.09375 L 6.578125 -20.8125 L 10.71875 -12.96875 L 15.59375 -20.296875 L 20.4375 -20.015625 L 13.21875 -9.9375 Z M 19.734375 1.125 "/></g></g></g><g fill="#000000" fill-opacity="0.302"><g transform="translate(16.077224, 90.001517)"><g><path d="M 13.484375 -21.96875 L 18.015625 -22.234375 L 12.0625 -0.6875 L 7.15625 -0.40625 L -1.21875 -21.125 L 3.3125 -21.390625 L 8.015625 -9.03125 C 8.273438 -8.3125 8.550781 -7.460938 8.84375 -6.484375 C 9.132812 -5.515625 9.320312 -4.835938 9.40625 -4.453125 C 9.457031 -5.335938 9.726562 -6.90625 10.21875 -9.15625 Z M 13.484375 -21.96875 "/></g></g></g><g fill="#000000" fill-opacity="0.302"><g transform="translate(35.065889, 88.898936)"><g><path d="M 15.59375 -0.5625 L 13.875 -5.53125 L 6.1875 -5.265625 L 4.828125 -0.171875 L 0 0 L 6.703125 -21.5 L 12.171875 -21.703125 L 20.4375 -0.734375 Z M 12.6875 -9.265625 C 11.113281 -13.765625 10.222656 -16.3125 10.015625 -16.90625 C 9.816406 -17.5 9.675781 -17.96875 9.59375 -18.3125 C 9.3125 -17.0625 8.507812 -13.976562 7.1875 -9.0625 Z M 12.6875 -9.265625 "/></g></g></g><g fill="#000000" fill-opacity="0.302"><g transform="translate(55.276384, 88.190797)"><g><path d="M 2.65625 -0.046875 L 2.328125 -21.203125 L 6.828125 -21.265625 L 7.09375 -3.8125 L 15.671875 -3.953125 L 15.734375 -0.25 Z M 2.65625 -0.046875 "/></g></g></g><g fill="#000000" fill-opacity="0.302"><g transform="translate(71.74533, 87.863236)"><g><path d="M 11.625 0.109375 L 6.671875 -16.53125 L 6.53125 -16.53125 C 6.695312 -13.15625 6.773438 -10.90625 6.765625 -9.78125 L 6.671875 0.0625 L 2.65625 0.03125 L 2.84375 -21.125 L 8.953125 -21.078125 L 13.828125 -4.859375 L 13.90625 -4.859375 L 19.359375 -20.984375 L 25.46875 -20.9375 L 25.28125 0.21875 L 21.109375 0.1875 L 21.203125 -9.828125 C 21.203125 -10.296875 21.207031 -10.835938 21.21875 -11.453125 C 21.238281 -12.078125 21.316406 -13.722656 21.453125 -16.390625 L 21.328125 -16.390625 L 15.734375 0.140625 Z M 11.625 0.109375 "/></g></g></g><g fill="#000000" fill-opacity="0.302"><g transform="translate(99.39566, 88.153924)"><g><path d="M 15.59375 0.546875 L 14.234375 -4.53125 L 6.546875 -4.8125 L 4.828125 0.171875 L 0 0 L 8.21875 -20.96875 L 13.6875 -20.78125 L 20.4375 0.71875 Z M 13.3125 -8.34375 C 12.0625 -12.9375 11.351562 -15.535156 11.1875 -16.140625 C 11.03125 -16.753906 10.925781 -17.238281 10.875 -17.59375 C 10.5 -16.363281 9.476562 -13.34375 7.8125 -8.53125 Z M 13.3125 -8.34375 "/></g></g></g><g fill="#000000" fill-opacity="0.302"><g transform="translate(119.58745, 88.867661)"><g><path d="M 19.734375 1.125 L 14.609375 0.84375 L 10.15625 -7.421875 L 4.796875 0.28125 L 0 0 L 7.625 -10.484375 L 1.65625 -21.09375 L 6.578125 -20.8125 L 10.71875 -12.96875 L 15.59375 -20.296875 L 20.4375 -20.015625 L 13.21875 -9.9375 Z M 19.734375 1.125 "/></g></g></g><g fill="#ffffff" fill-opacity="1"><g transform="translate(13.456835, 87.381135)"><g><path d="M 13.484375 -21.96875 L 18.015625 -22.234375 L 12.0625 -0.6875 L 7.15625 -0.40625 L -1.21875 -21.125 L 3.3125 -21.390625 L 8.015625 -9.03125 C 8.273438 -8.3125 8.550781 -7.460938 8.84375 -6.484375 C 9.132812 -5.515625 9.320312 -4.835938 9.40625 -4.453125 C 9.457031 -5.335938 9.726562 -6.90625 10.21875 -9.15625 Z M 13.484375 -21.96875 "/></g></g></g><g fill="#ffffff" fill-opacity="1"><g transform="translate(32.445499, 86.278554)"><g><path d="M 15.59375 -0.5625 L 13.875 -5.53125 L 6.1875 -5.265625 L 4.828125 -0.171875 L 0 0 L 6.703125 -21.5 L 12.171875 -21.703125 L 20.4375 -0.734375 Z M 12.6875 -9.265625 C 11.113281 -13.765625 10.222656 -16.3125 10.015625 -16.90625 C 9.816406 -17.5 9.675781 -17.96875 9.59375 -18.3125 C 9.3125 -17.0625 8.507812 -13.976562 7.1875 -9.0625 Z M 12.6875 -9.265625 "/></g></g></g><g fill="#ffffff" fill-opacity="1"><g transform="translate(52.655997, 85.570415)"><g><path d="M 2.65625 -0.046875 L 2.328125 -21.203125 L 6.828125 -21.265625 L 7.09375 -3.8125 L 15.671875 -3.953125 L 15.734375 -0.25 Z M 2.65625 -0.046875 "/></g></g></g><g fill="#ffffff" fill-opacity="1"><g transform="translate(69.124946, 85.242853)"><g><path d="M 11.625 0.109375 L 6.671875 -16.53125 L 6.53125 -16.53125 C 6.695312 -13.15625 6.773438 -10.90625 6.765625 -9.78125 L 6.671875 0.0625 L 2.65625 0.03125 L 2.84375 -21.125 L 8.953125 -21.078125 L 13.828125 -4.859375 L 13.90625 -4.859375 L 19.359375 -20.984375 L 25.46875 -20.9375 L 25.28125 0.21875 L 21.109375 0.1875 L 21.203125 -9.828125 C 21.203125 -10.296875 21.207031 -10.835938 21.21875 -11.453125 C 21.238281 -12.078125 21.316406 -13.722656 21.453125 -16.390625 L 21.328125 -16.390625 L 15.734375 0.140625 Z M 11.625 0.109375 "/></g></g></g><g fill="#ffffff" fill-opacity="1"><g transform="translate(96.775273, 85.533542)"><g><path d="M 15.59375 0.546875 L 14.234375 -4.53125 L 6.546875 -4.8125 L 4.828125 0.171875 L 0 0 L 8.21875 -20.96875 L 13.6875 -20.78125 L 20.4375 0.71875 Z M 13.3125 -8.34375 C 12.0625 -12.9375 11.351562 -15.535156 11.1875 -16.140625 C 11.03125 -16.753906 10.925781 -17.238281 10.875 -17.59375 C 10.5 -16.363281 9.476562 -13.34375 7.8125 -8.53125 Z M 13.3125 -8.34375 "/></g></g></g><g fill="#ffffff" fill-opacity="1"><g transform="translate(116.967065, 86.247279)"><g><path d="M 19.734375 1.125 L 14.609375 0.84375 L 10.15625 -7.421875 L 4.796875 0.28125 L 0 0 L 7.625 -10.484375 L 1.65625 -21.09375 L 6.578125 -20.8125 L 10.71875 -12.96875 L 15.59375 -20.296875 L 20.4375 -20.015625 L 13.21875 -9.9375 Z M 19.734375 1.125 "/></g></g></g></svg>